<svg xmlns="http://www.w3.org/2000/svg" viewBox="0 0 64 64" role="img" aria-labelledby="title">
  <title>Bluesky</title>
  <rect width="64" height="64" rx="12" fill="#1185FE"/>
  <path d="M19.8 18.6c4.2 3.1 8.8 9.3 12.2 14.6 3.4-5.3 8-11.5 12.2-14.6 3-2.2 7.8-3.9 7.8 1.6 0 1.1-.6 9.4-1 10.7-1.3 4.5-6.2 5.7-10.5 5l-.3.5c1.1.2 2.1.5 3 .9 5.1 2 9.6 7.2 3.7 13.1-5.6 5.6-12.4 1.2-14.1-4.4-1.7 5.6-8.5 10-14.1 4.4-5.9-5.9-1.4-11.1 3.7-13.1.9-.4 1.9-.7 3-.9l-.3-.5c-4.3.7-9.2-.5-10.5-5-.4-1.3-1-9.6-1-10.7 0-5.5 4.8-3.8 7.8-1.6z" fill="#FFFFFF"/>
</svg>
